<svg xmlns="http://www.w3.org/2000/svg" viewBox="0 0 24 24">
  <rect width="24" height="24" rx="5" fill="#FFFC00"/>
  <path d="M12 4c-2.8 0-5 2.3-5 5.2 0 .8.08 1.6.22 2.3-.25.08-.52.13-.82.13-.3 0-.4.1-.4.25s.5.55 1.2.72c.07.2.1.4.1.62 0 .12-.02.24-.06.35-.12.32-.44.52-.92.52-.07 0-.14 0-.2-.01-.22 0-.38.07-.38.22s.35.38.7.5c.07.02.15.05.18.08.04.04.07.1.08.16.04.18.06.37.06.57 0 .1-.01.2-.02.3 0 .08.04.14.13.14a.5.5 0 0 0 .06 0c.25-.05.6-.09.96-.09.18 0 .37.01.55.04.45.09.8.43 1.25.82.6.53 1.28 1.13 2.31 1.13s1.71-.6 2.31-1.13c.44-.39.8-.73 1.25-.82.18-.03.37-.04.55-.04.36 0 .71.04.96.09a.5.5 0 0 0 .06 0c.09 0 .14-.06.13-.15-.01-.1-.02-.2-.02-.3 0-.2.02-.39.06-.57.01-.06.04-.12.08-.16.03-.03.11-.06.18-.08.35-.12.7-.35.7-.5s-.16-.22-.38-.22c-.06.01-.13.01-.2.01-.48 0-.8-.2-.92-.52-.04-.11-.06-.23-.06-.35 0-.22.03-.42.1-.62.7-.17 1.2-.57 1.2-.72s-.1-.25-.4-.25c-.3 0-.57-.05-.82-.13.14-.7.22-1.5.22-2.3 0-2.9-2.2-5.2-5-5.2z" fill="#222"/>
</svg>
